<?xml version="1.0" encoding="UTF-8"?>
<svg xmlns="http://www.w3.org/2000/svg" width="1024" height="1024" viewBox="0 0 1024 1024">
  <rect width="100%" height="100%" fill="white"/>
  <path d="M 628.0 757.0 L 627.0 804.0 L 630.0 806.0 L 661.0 805.0 L 661.0 801.0 L 645.0 802.0 L 632.0 799.0 L 632.0 785.0 L 634.0 783.0 L 656.0 782.0 L 656.0 779.0 L 634.0 779.0 L 632.0 777.0 L 632.0 763.0 L 634.0 761.0 L 660.0 761.0 L 661.0 758.0 Z M 527.0 757.0 L 527.0 805.0 L 530.0 805.0 L 531.0 758.0 Z M 399.0 757.0 L 398.0 804.0 L 403.0 804.0 L 402.0 792.0 L 404.0 790.0 L 420.0 790.0 L 427.0 801.0 L 434.0 805.0 L 427.0 793.0 L 427.0 789.0 L 435.0 780.0 L 434.0 765.0 L 430.0 760.0 L 423.0 757.0 Z M 403.0 762.0 L 421.0 761.0 L 426.0 763.0 L 431.0 770.0 L 430.0 780.0 L 424.0 785.0 L 404.0 786.0 Z M 337.0 757.0 L 336.0 805.0 L 369.0 805.0 L 369.0 802.0 L 342.0 802.0 L 340.0 800.0 L 340.0 785.0 L 342.0 783.0 L 366.0 782.0 L 365.0 779.0 L 342.0 779.0 L 340.0 777.0 L 340.0 763.0 L 342.0 761.0 L 369.0 761.0 L 370.0 758.0 Z M 700.0 756.0 L 688.0 763.0 L 687.0 773.0 L 692.0 779.0 L 713.0 786.0 L 717.0 791.0 L 717.0 795.0 L 708.0 802.0 L 688.0 799.0 L 688.0 801.0 L 700.0 806.0 L 709.0 806.0 L 720.0 799.0 L 721.0 790.0 L 719.0 785.0 L 696.0 776.0 L 691.0 771.0 L 691.0 767.0 L 700.0 760.0 L 718.0 763.0 L 719.0 760.0 L 713.0 757.0 Z M 579.0 756.0 L 569.0 760.0 L 561.0 768.0 L 558.0 785.0 L 560.0 792.0 L 569.0 802.0 L 579.0 806.0 L 588.0 806.0 L 599.0 801.0 L 599.0 798.0 L 578.0 802.0 L 567.0 794.0 L 563.0 786.0 L 564.0 773.0 L 573.0 763.0 L 590.0 761.0 L 600.0 765.0 L 600.0 762.0 L 594.0 758.0 Z M 457.0 756.0 L 477.0 805.0 L 481.0 805.0 L 502.0 757.0 L 497.0 757.0 L 483.0 793.0 L 478.0 794.0 L 462.0 757.0 Z M 288.0 756.0 L 280.0 759.0 L 275.0 764.0 L 275.0 775.0 L 283.0 781.0 L 299.0 785.0 L 304.0 790.0 L 304.0 796.0 L 297.0 802.0 L 286.0 802.0 L 277.0 798.0 L 273.0 798.0 L 273.0 800.0 L 282.0 805.0 L 296.0 806.0 L 308.0 799.0 L 309.0 789.0 L 304.0 783.0 L 284.0 776.0 L 280.0 772.0 L 280.0 765.0 L 285.0 761.0 L 306.0 763.0 L 306.0 760.0 L 300.0 757.0 Z M 664.0 640.0 L 696.0 699.0 L 696.0 730.0 L 721.0 731.0 L 722.0 700.0 L 754.0 640.0 L 729.0 640.0 L 712.0 671.0 L 705.0 668.0 L 690.0 640.0 Z M 639.0 643.0 L 626.0 640.0 L 579.0 641.0 L 580.0 731.0 L 603.0 731.0 L 604.0 711.0 L 606.0 709.0 L 632.0 708.0 L 644.0 703.0 L 653.0 695.0 L 658.0 681.0 L 657.0 664.0 L 653.0 654.0 Z M 604.0 663.0 L 606.0 661.0 L 624.0 661.0 L 632.0 669.0 L 631.0 682.0 L 624.0 688.0 L 606.0 688.0 L 604.0 686.0 Z M 538.0 641.0 L 483.0 641.0 L 484.0 731.0 L 508.0 731.0 L 509.0 711.0 L 511.0 709.0 L 542.0 706.0 L 551.0 701.0 L 559.0 691.0 L 562.0 680.0 L 560.0 660.0 L 553.0 649.0 Z M 509.0 663.0 L 511.0 661.0 L 531.0 663.0 L 536.0 669.0 L 535.0 682.0 L 528.0 688.0 L 511.0 688.0 L 509.0 686.0 Z M 406.0 640.0 L 369.0 731.0 L 394.0 731.0 L 401.0 717.0 L 436.0 717.0 L 443.0 731.0 L 468.0 731.0 L 467.0 724.0 L 432.0 641.0 Z M 416.0 673.0 L 420.0 673.0 L 427.0 690.0 L 426.0 697.0 L 409.0 696.0 L 409.0 690.0 Z M 270.0 640.0 L 269.0 730.0 L 295.0 730.0 L 295.0 698.0 L 297.0 696.0 L 326.0 696.0 L 328.0 698.0 L 328.0 730.0 L 352.0 731.0 L 353.0 641.0 L 328.0 641.0 L 328.0 672.0 L 326.0 674.0 L 297.0 674.0 L 295.0 672.0 L 295.0 641.0 Z M 401.0 497.0 L 404.0 501.0 L 416.0 505.0 L 423.0 505.0 L 432.0 500.0 L 432.0 498.0 L 413.0 499.0 Z M 594.0 453.0 L 591.0 454.0 L 586.0 464.0 L 586.0 468.0 L 589.0 469.0 L 589.0 487.0 L 583.0 491.0 L 577.0 490.0 L 579.0 467.0 L 573.0 462.0 L 568.0 473.0 L 570.0 477.0 L 570.0 497.0 L 566.0 500.0 L 567.0 503.0 L 579.0 499.0 L 599.0 486.0 L 599.0 483.0 L 595.0 482.0 L 598.0 459.0 Z M 488.0 437.0 L 485.0 429.0 L 473.0 422.0 L 470.0 422.0 L 470.0 428.0 L 463.0 432.0 L 423.0 438.0 L 385.0 435.0 L 350.0 424.0 L 360.0 434.0 L 376.0 471.0 L 390.0 483.0 L 412.0 490.0 L 433.0 488.0 L 453.0 478.0 L 471.0 457.0 L 481.0 436.0 Z M 393.0 478.0 L 396.0 471.0 L 411.0 465.0 L 416.0 466.0 L 416.0 471.0 L 434.0 465.0 L 450.0 467.0 L 450.0 472.0 L 447.0 475.0 L 429.0 483.0 L 408.0 484.0 Z M 469.0 436.0 L 469.0 440.0 L 463.0 444.0 L 441.0 452.0 L 428.0 454.0 L 397.0 453.0 L 386.0 450.0 L 376.0 443.0 L 377.0 438.0 L 403.0 442.0 L 431.0 442.0 L 463.0 435.0 Z M 615.0 417.0 L 615.0 420.0 L 621.0 425.0 L 634.0 428.0 L 634.0 426.0 Z M 448.0 342.0 L 437.0 355.0 L 432.0 370.0 L 433.0 389.0 L 437.0 401.0 L 443.0 409.0 L 443.0 414.0 L 468.0 406.0 L 493.0 407.0 L 488.0 402.0 L 491.0 388.0 L 491.0 368.0 L 483.0 350.0 L 467.0 339.0 L 455.0 339.0 Z M 467.0 344.0 L 476.0 350.0 L 476.0 355.0 L 465.0 358.0 L 469.0 367.0 L 469.0 372.0 L 466.0 375.0 L 456.0 374.0 L 455.0 391.0 L 459.0 403.0 L 448.0 407.0 L 441.0 398.0 L 437.0 386.0 L 438.0 366.0 L 443.0 354.0 L 451.0 346.0 L 459.0 343.0 Z M 362.0 339.0 L 349.0 349.0 L 344.0 358.0 L 342.0 366.0 L 344.0 396.0 L 341.0 400.0 L 359.0 400.0 L 381.0 408.0 L 391.0 385.0 L 391.0 361.0 L 381.0 343.0 L 374.0 339.0 Z M 373.0 344.0 L 380.0 350.0 L 380.0 354.0 L 370.0 357.0 L 373.0 370.0 L 370.0 373.0 L 360.0 372.0 L 361.0 395.0 L 352.0 396.0 L 346.0 381.0 L 346.0 368.0 L 350.0 355.0 L 361.0 344.0 Z M 449.0 320.0 L 449.0 323.0 L 469.0 324.0 L 490.0 333.0 L 489.0 328.0 L 482.0 320.0 L 468.0 312.0 L 456.0 311.0 Z M 375.0 311.0 L 362.0 312.0 L 352.0 317.0 L 343.0 327.0 L 343.0 330.0 L 357.0 324.0 L 380.0 322.0 Z M 290.0 280.0 L 288.0 303.0 L 298.0 394.0 L 285.0 401.0 L 278.0 408.0 L 269.0 428.0 L 254.0 448.0 L 250.0 463.0 L 249.0 486.0 L 240.0 499.0 L 241.0 511.0 L 237.0 524.0 L 237.0 534.0 L 242.0 554.0 L 250.0 564.0 L 267.0 573.0 L 290.0 571.0 L 299.0 564.0 L 303.0 556.0 L 303.0 544.0 L 309.0 535.0 L 309.0 526.0 L 304.0 512.0 L 295.0 502.0 L 291.0 491.0 L 291.0 483.0 L 299.0 471.0 L 300.0 461.0 L 306.0 460.0 L 311.0 499.0 L 314.0 505.0 L 326.0 513.0 L 379.0 520.0 L 382.0 523.0 L 387.0 542.0 L 386.0 554.0 L 394.0 571.0 L 393.0 576.0 L 384.0 577.0 L 373.0 583.0 L 362.0 597.0 L 304.0 604.0 L 304.0 607.0 L 347.0 613.0 L 439.0 617.0 L 577.0 616.0 L 631.0 613.0 L 671.0 607.0 L 671.0 604.0 L 610.0 597.0 L 605.0 589.0 L 595.0 581.0 L 578.0 577.0 L 576.0 575.0 L 576.0 563.0 L 581.0 554.0 L 579.0 545.0 L 580.0 523.0 L 663.0 473.0 L 673.0 457.0 L 694.0 448.0 L 736.0 452.0 L 769.0 441.0 L 778.0 430.0 L 779.0 419.0 L 784.0 410.0 L 785.0 401.0 L 782.0 393.0 L 783.0 378.0 L 781.0 373.0 L 772.0 366.0 L 761.0 362.0 L 739.0 361.0 L 739.0 348.0 L 734.0 334.0 L 727.0 327.0 L 719.0 324.0 L 711.0 325.0 L 702.0 332.0 L 700.0 343.0 L 706.0 359.0 L 706.0 369.0 L 697.0 380.0 L 693.0 390.0 L 684.0 397.0 L 679.0 396.0 L 696.0 250.0 L 695.0 241.0 L 689.0 235.0 L 441.0 216.0 L 299.0 272.0 Z M 531.0 565.0 L 566.0 566.0 L 568.0 568.0 L 568.0 580.0 L 565.0 584.0 L 588.0 586.0 L 600.0 596.0 L 602.0 604.0 L 581.0 607.0 L 544.0 604.0 L 541.0 601.0 L 541.0 585.0 L 534.0 577.0 Z M 437.0 563.0 L 437.0 571.0 L 431.0 583.0 L 432.0 602.0 L 400.0 605.0 L 371.0 603.0 L 373.0 594.0 L 380.0 587.0 L 389.0 583.0 L 407.0 583.0 L 401.0 570.0 L 402.0 565.0 Z M 574.0 554.0 L 570.0 560.0 L 562.0 563.0 L 548.0 562.0 L 529.0 549.0 L 527.0 543.0 L 546.0 543.0 L 570.0 533.0 L 570.0 546.0 L 573.0 548.0 Z M 441.0 548.0 L 452.0 531.0 L 509.0 537.0 L 524.0 556.0 L 523.0 571.0 L 532.0 586.0 L 532.0 591.0 L 442.0 592.0 L 440.0 590.0 L 440.0 580.0 L 445.0 570.0 L 445.0 562.0 L 441.0 554.0 Z M 390.0 525.0 L 401.0 524.0 L 433.0 528.0 L 440.0 531.0 L 440.0 536.0 L 428.0 551.0 L 428.0 559.0 L 403.0 561.0 L 393.0 554.0 L 393.0 548.0 L 397.0 545.0 L 392.0 536.0 Z M 259.0 489.0 L 273.0 488.0 L 283.0 493.0 L 284.0 498.0 L 280.0 501.0 L 288.0 506.0 L 299.0 520.0 L 301.0 535.0 L 297.0 539.0 L 292.0 539.0 L 287.0 535.0 L 287.0 527.0 L 284.0 527.0 L 280.0 540.0 L 284.0 549.0 L 287.0 550.0 L 288.0 545.0 L 295.0 548.0 L 295.0 556.0 L 288.0 564.0 L 281.0 565.0 L 275.0 562.0 L 269.0 554.0 L 267.0 554.0 L 268.0 562.0 L 262.0 563.0 L 255.0 551.0 L 247.0 546.0 L 245.0 520.0 L 254.0 502.0 L 248.0 501.0 L 248.0 497.0 Z M 299.0 404.0 L 300.0 420.0 L 296.0 425.0 L 301.0 427.0 L 303.0 449.0 L 299.0 452.0 L 285.0 451.0 L 292.0 460.0 L 292.0 467.0 L 283.0 482.0 L 257.0 483.0 L 257.0 463.0 L 261.0 449.0 L 275.0 432.0 L 282.0 414.0 L 292.0 405.0 Z M 740.0 369.0 L 763.0 370.0 L 775.0 379.0 L 773.0 393.0 L 777.0 407.0 L 771.0 418.0 L 770.0 430.0 L 760.0 437.0 L 736.0 437.0 L 729.0 430.0 L 729.0 424.0 L 734.0 419.0 L 742.0 416.0 L 756.0 416.0 L 751.0 412.0 L 732.0 415.0 L 725.0 413.0 L 725.0 405.0 L 732.0 396.0 L 745.0 391.0 L 756.0 391.0 L 752.0 388.0 L 725.0 390.0 L 727.0 379.0 Z M 714.0 332.0 L 722.0 333.0 L 731.0 346.0 L 731.0 358.0 L 728.0 368.0 L 721.0 376.0 L 718.0 384.0 L 720.0 395.0 L 718.0 415.0 L 722.0 421.0 L 722.0 431.0 L 726.0 438.0 L 725.0 443.0 L 715.0 440.0 L 705.0 430.0 L 703.0 430.0 L 704.0 437.0 L 699.0 438.0 L 692.0 430.0 L 688.0 419.0 L 690.0 404.0 L 694.0 404.0 L 698.0 413.0 L 700.0 413.0 L 700.0 394.0 L 714.0 368.0 L 713.0 355.0 L 708.0 337.0 Z M 324.0 273.0 L 363.0 257.0 L 377.0 257.0 L 428.0 263.0 L 594.0 276.0 L 595.0 281.0 L 565.0 295.0 L 333.0 279.0 L 325.0 278.0 Z M 685.0 249.0 L 666.0 403.0 L 661.0 404.0 L 650.0 391.0 L 641.0 388.0 L 634.0 378.0 L 623.0 370.0 L 606.0 369.0 L 600.0 374.0 L 613.0 374.0 L 624.0 379.0 L 629.0 384.0 L 630.0 390.0 L 622.0 392.0 L 622.0 394.0 L 639.0 394.0 L 649.0 400.0 L 655.0 408.0 L 653.0 420.0 L 666.0 412.0 L 679.0 411.0 L 687.0 443.0 L 673.0 450.0 L 654.0 452.0 L 640.0 444.0 L 629.0 443.0 L 615.0 437.0 L 602.0 425.0 L 601.0 417.0 L 603.0 413.0 L 586.0 411.0 L 586.0 416.0 L 592.0 427.0 L 606.0 442.0 L 619.0 449.0 L 655.0 460.0 L 655.0 466.0 L 557.0 524.0 L 548.0 526.0 L 557.0 396.0 L 553.0 396.0 L 543.0 521.0 L 540.0 530.0 L 512.0 528.0 L 490.0 523.0 L 346.0 504.0 L 328.0 504.0 L 323.0 500.0 L 298.0 288.0 L 303.0 282.0 L 316.0 281.0 L 558.0 299.0 L 558.0 327.0 L 553.0 379.0 L 557.0 380.0 L 560.0 371.0 L 565.0 301.0 L 590.0 288.0 L 606.0 283.0 L 605.0 328.0 L 628.0 311.0 L 644.0 312.0 L 647.0 310.0 L 650.0 264.0 L 654.0 260.0 L 680.0 248.0 Z M 382.0 250.0 L 402.0 241.0 L 629.0 259.0 L 633.0 261.0 L 633.0 265.0 L 624.0 269.0 L 624.0 271.0 L 640.0 265.0 L 645.0 266.0 L 643.0 306.0 L 641.0 308.0 L 628.0 306.0 L 617.0 315.0 L 610.0 315.0 L 611.0 284.0 L 616.0 274.0 L 383.0 255.0 Z M 422.0 235.0 L 443.0 226.0 L 669.0 242.0 L 670.0 247.0 L 648.0 258.0 L 428.0 241.0 L 423.0 240.0 Z" fill="rgb(24,44,90)" fill-rule="evenodd" stroke="none"/>
  <path d="M 573.0 554.0 L 570.0 547.0 L 570.0 533.0 L 546.0 544.0 L 525.0 543.0 L 526.0 546.0 L 548.0 561.0 L 562.0 562.0 L 570.0 559.0 Z M 391.0 525.0 L 399.0 541.0 L 399.0 546.0 L 394.0 548.0 L 394.0 554.0 L 399.0 559.0 L 418.0 560.0 L 430.0 557.0 L 429.0 548.0 L 439.0 536.0 L 440.0 531.0 Z M 401.0 479.0 L 401.0 481.0 L 414.0 483.0 L 414.0 481.0 Z M 299.0 407.0 L 286.0 418.0 L 279.0 433.0 L 270.0 445.0 L 264.0 459.0 L 260.0 481.0 L 282.0 482.0 L 291.0 467.0 L 291.0 460.0 L 286.0 456.0 L 286.0 452.0 L 302.0 449.0 L 301.0 431.0 L 298.0 425.0 L 300.0 419.0 Z M 344.0 276.0 L 344.0 278.0 L 556.0 294.0 L 565.0 294.0 L 598.0 279.0 L 598.0 277.0 L 386.0 259.0 Z M 684.0 249.0 L 671.0 253.0 L 651.0 264.0 L 648.0 310.0 L 644.0 313.0 L 628.0 312.0 L 611.0 326.0 L 605.0 327.0 L 606.0 284.0 L 584.0 291.0 L 566.0 301.0 L 561.0 371.0 L 558.0 380.0 L 552.0 379.0 L 558.0 301.0 L 555.0 299.0 L 313.0 293.0 L 313.0 319.0 L 331.0 502.0 L 539.0 530.0 L 542.0 521.0 L 550.0 402.0 L 553.0 395.0 L 558.0 396.0 L 548.0 526.0 L 557.0 523.0 L 658.0 463.0 L 658.0 461.0 L 645.0 459.0 L 606.0 443.0 L 591.0 427.0 L 585.0 416.0 L 586.0 410.0 L 601.0 412.0 L 603.0 425.0 L 615.0 436.0 L 629.0 442.0 L 640.0 443.0 L 654.0 451.0 L 669.0 450.0 L 686.0 443.0 L 687.0 440.0 L 678.0 416.0 L 654.0 420.0 L 653.0 414.0 L 645.0 403.0 L 623.0 396.0 L 625.0 389.0 L 622.0 384.0 L 613.0 379.0 L 601.0 377.0 L 603.0 369.0 L 623.0 369.0 L 630.0 373.0 L 641.0 387.0 L 650.0 390.0 L 662.0 404.0 L 665.0 404.0 Z M 405.0 498.0 L 428.0 498.0 L 429.0 503.0 L 423.0 506.0 L 411.0 505.0 L 405.0 502.0 Z M 577.0 463.0 L 580.0 472.0 L 576.0 493.0 L 588.0 489.0 L 589.0 494.0 L 573.0 501.0 L 571.0 504.0 L 567.0 504.0 L 566.0 499.0 L 573.0 495.0 L 569.0 492.0 L 568.0 472.0 L 571.0 464.0 Z M 591.0 453.0 L 595.0 453.0 L 598.0 457.0 L 596.0 480.0 L 593.0 483.0 L 588.0 482.0 L 588.0 468.0 L 586.0 467.0 L 586.0 462.0 Z M 486.0 429.0 L 486.0 434.0 L 481.0 436.0 L 472.0 457.0 L 453.0 479.0 L 439.0 487.0 L 423.0 491.0 L 405.0 490.0 L 384.0 480.0 L 373.0 468.0 L 357.0 432.0 L 357.0 428.0 L 362.0 427.0 L 399.0 436.0 L 436.0 436.0 L 471.0 428.0 L 472.0 422.0 L 477.0 422.0 Z M 471.0 339.0 L 484.0 350.0 L 491.0 364.0 L 492.0 388.0 L 488.0 406.0 L 468.0 407.0 L 444.0 414.0 L 432.0 389.0 L 432.0 364.0 L 440.0 349.0 L 448.0 341.0 L 455.0 338.0 Z M 362.0 338.0 L 374.0 338.0 L 381.0 342.0 L 387.0 349.0 L 392.0 361.0 L 392.0 385.0 L 380.0 408.0 L 359.0 401.0 L 343.0 400.0 L 342.0 361.0 L 348.0 349.0 Z M 449.0 318.0 L 456.0 310.0 L 468.0 311.0 L 482.0 319.0 L 487.0 324.0 L 487.0 329.0 L 482.0 330.0 L 464.0 324.0 L 450.0 324.0 Z M 380.0 318.0 L 379.0 323.0 L 361.0 324.0 L 351.0 328.0 L 345.0 327.0 L 345.0 323.0 L 352.0 316.0 L 362.0 311.0 L 375.0 310.0 Z M 438.0 238.0 L 440.0 241.0 L 635.0 257.0 L 648.0 257.0 L 674.0 245.0 L 674.0 243.0 L 461.0 228.0 Z" fill="rgb(43,87,160)" fill-rule="evenodd" stroke="none"/>
  <path d="M 422.0 470.0 L 419.0 470.0 L 418.0 467.0 L 408.0 467.0 L 397.0 472.0 L 396.0 476.0 L 403.0 478.0 L 403.0 472.0 L 410.0 470.0 L 412.0 480.0 L 414.0 480.0 L 414.0 474.0 L 422.0 472.0 Z M 449.0 468.0 L 440.0 466.0 L 439.0 473.0 L 434.0 477.0 L 427.0 478.0 L 427.0 480.0 L 442.0 476.0 L 449.0 471.0 Z M 274.0 437.0 L 263.0 448.0 L 258.0 473.0 L 260.0 473.0 L 264.0 456.0 Z M 679.0 413.0 L 668.0 413.0 L 665.0 416.0 L 679.0 415.0 Z M 294.0 407.0 L 285.0 413.0 L 279.0 425.0 L 282.0 424.0 Z M 630.0 395.0 L 633.0 399.0 L 633.0 405.0 L 638.0 408.0 L 647.0 405.0 L 654.0 413.0 L 654.0 409.0 L 649.0 402.0 L 640.0 396.0 Z M 603.0 375.0 L 603.0 377.0 L 619.0 381.0 L 628.0 389.0 L 623.0 380.0 L 615.0 376.0 Z M 463.0 294.0 L 463.0 296.0 L 473.0 296.0 L 473.0 294.0 Z M 460.0 293.0 L 304.0 283.0 L 301.0 286.0 L 300.0 299.0 L 323.0 493.0 L 327.0 502.0 L 330.0 502.0 L 331.0 499.0 L 311.0 294.0 L 313.0 292.0 L 460.0 295.0 Z M 379.0 259.0 L 365.0 258.0 L 327.0 273.0 L 325.0 276.0 L 342.0 277.0 L 352.0 271.0 L 375.0 263.0 Z M 455.0 228.0 L 445.0 227.0 L 424.0 235.0 L 421.0 239.0 L 434.0 239.0 L 455.0 230.0 Z" fill="rgb(113,138,172)" fill-rule="evenodd" stroke="none"/>
  <path d="M 571.0 585.0 L 572.0 604.0 L 579.0 605.0 L 579.0 591.0 L 582.0 586.0 Z M 417.0 567.0 L 404.0 568.0 L 406.0 577.0 L 410.0 580.0 L 410.0 584.0 L 405.0 585.0 L 408.0 596.0 L 415.0 594.0 L 418.0 589.0 L 417.0 582.0 L 414.0 579.0 L 414.0 570.0 Z M 250.0 517.0 L 248.0 517.0 L 246.0 527.0 L 249.0 527.0 Z M 273.0 507.0 L 271.0 541.0 L 276.0 542.0 L 276.0 511.0 Z M 753.0 418.0 L 754.0 430.0 L 756.0 430.0 L 756.0 418.0 Z M 691.0 405.0 L 690.0 410.0 L 695.0 423.0 L 697.0 423.0 L 698.0 416.0 L 693.0 405.0 Z M 757.0 392.0 L 752.0 393.0 L 754.0 407.0 L 756.0 407.0 Z M 442.0 391.0 L 443.0 398.0 L 448.0 405.0 L 458.0 402.0 L 453.0 391.0 Z M 355.0 381.0 L 352.0 389.0 L 359.0 392.0 L 358.0 381.0 Z M 751.0 371.0 L 753.0 385.0 L 757.0 386.0 L 757.0 378.0 L 760.0 372.0 Z M 719.0 336.0 L 721.0 354.0 L 726.0 355.0 L 729.0 359.0 L 728.0 343.0 L 722.0 336.0 Z M 644.0 267.0 L 623.0 275.0 L 617.0 275.0 L 613.0 280.0 L 612.0 315.0 L 627.0 304.0 L 641.0 305.0 Z M 397.0 252.0 L 398.0 255.0 L 583.0 269.0 L 599.0 272.0 L 618.0 272.0 L 620.0 268.0 L 631.0 264.0 L 631.0 262.0 L 572.0 259.0 L 570.0 257.0 L 562.0 259.0 L 550.0 258.0 L 541.0 254.0 L 433.0 245.0 L 413.0 245.0 Z" fill="rgb(210,213,209)" fill-rule="evenodd" stroke="none"/>
  <path d="M 581.0 589.0 L 581.0 604.0 L 599.0 603.0 L 599.0 598.0 L 593.0 591.0 L 588.0 588.0 Z M 534.0 566.0 L 533.0 570.0 L 543.0 586.0 L 543.0 600.0 L 550.0 603.0 L 571.0 604.0 L 572.0 590.0 L 570.0 587.0 L 562.0 586.0 L 563.0 570.0 L 561.0 568.0 Z M 436.0 565.0 L 424.0 565.0 L 414.0 571.0 L 414.0 578.0 L 417.0 581.0 L 418.0 588.0 L 415.0 595.0 L 407.0 596.0 L 402.0 585.0 L 392.0 584.0 L 381.0 588.0 L 373.0 597.0 L 373.0 601.0 L 402.0 603.0 L 431.0 600.0 L 430.0 581.0 L 434.0 575.0 Z M 265.0 489.0 L 253.0 498.0 L 255.0 509.0 L 250.0 520.0 L 250.0 547.0 L 255.0 549.0 L 264.0 562.0 L 267.0 561.0 L 267.0 556.0 L 263.0 556.0 L 262.0 551.0 L 268.0 550.0 L 269.0 556.0 L 285.0 563.0 L 290.0 560.0 L 293.0 549.0 L 282.0 549.0 L 279.0 544.0 L 280.0 530.0 L 283.0 526.0 L 287.0 526.0 L 289.0 534.0 L 297.0 536.0 L 299.0 527.0 L 292.0 512.0 L 279.0 502.0 L 282.0 495.0 L 276.0 491.0 Z M 271.0 516.0 L 277.0 517.0 L 276.0 542.0 L 271.0 541.0 Z M 440.0 469.0 L 428.0 469.0 L 419.0 474.0 L 413.0 474.0 L 412.0 471.0 L 408.0 470.0 L 402.0 473.0 L 401.0 476.0 L 410.0 479.0 L 422.0 479.0 L 436.0 475.0 Z M 734.0 374.0 L 727.0 384.0 L 729.0 388.0 L 751.0 386.0 L 758.0 388.0 L 760.0 394.0 L 757.0 400.0 L 753.0 400.0 L 751.0 395.0 L 737.0 395.0 L 729.0 401.0 L 729.0 412.0 L 751.0 410.0 L 757.0 413.0 L 756.0 420.0 L 751.0 418.0 L 738.0 419.0 L 731.0 425.0 L 731.0 429.0 L 736.0 435.0 L 760.0 435.0 L 769.0 428.0 L 770.0 417.0 L 775.0 409.0 L 775.0 400.0 L 772.0 395.0 L 773.0 380.0 L 766.0 375.0 L 760.0 375.0 L 757.0 381.0 L 753.0 381.0 L 752.0 375.0 L 748.0 372.0 Z M 710.0 338.0 L 716.0 361.0 L 713.0 380.0 L 709.0 381.0 L 702.0 393.0 L 702.0 417.0 L 694.0 419.0 L 692.0 413.0 L 690.0 413.0 L 690.0 419.0 L 694.0 430.0 L 700.0 436.0 L 702.0 436.0 L 703.0 430.0 L 707.0 430.0 L 714.0 437.0 L 723.0 441.0 L 720.0 421.0 L 716.0 414.0 L 718.0 401.0 L 716.0 381.0 L 717.0 375.0 L 725.0 369.0 L 727.0 352.0 L 725.0 345.0 L 719.0 342.0 L 717.0 336.0 Z" fill="rgb(198,170,91)" fill-rule="evenodd" stroke="none"/>
</svg>
